<svg xmlns="http://www.w3.org/2000/svg" viewBox="0 0 64 64">
  <defs>
    <linearGradient id="bg" x1="0" y1="0" x2="1" y2="1">
      <stop offset="0%" stop-color="#f8f1e6"/>
      <stop offset="100%" stop-color="#ead5c4"/>
    </linearGradient>
    <linearGradient id="roof" x1="0" y1="0" x2="1" y2="1">
      <stop offset="0%" stop-color="#a44a31"/>
      <stop offset="100%" stop-color="#6c2619"/>
    </linearGradient>
  </defs>

  <rect width="64" height="64" rx="16" fill="url(#bg)"/>
  <circle cx="48" cy="16" r="7" fill="#c78c39" opacity="0.9"/>

  <path d="M10 45c6-8 10-11 15-11 3 0 6 1 9 3 2-2 5-3 8-3 5 0 8 3 12 11z" fill="#d9b38a" opacity="0.95"/>
  <path d="M16 31h32l-4-5H20z" fill="url(#roof)"/>
  <path d="M19 33h26v4H19z" fill="#8a3926"/>
  <path d="M22 37h4v9h-4zM30 37h4v9h-4zM38 37h4v9h-4z" fill="#6c2619"/>
  <path d="M18 46h28" stroke="#6c2619" stroke-width="3" stroke-linecap="round"/>

  <path d="M12 50h40" stroke="#59371c" stroke-opacity="0.2" stroke-width="2" stroke-linecap="round"/>
</svg>
